# xmcd
#
# Track frame offsets:
#  150
#  5802
#  34516
#  58182
#  79411
#  96209
#  109360
#  120361
#  131924
#  146605
#  154947
#  173224
#  197655
#  220376
#  228605
#  240673
#
# Disc length: 3408 seconds
#
# Revision: 0
# Processed by: cddbd v1.5.2PL0 Copyright (c) Steve Scherf et al.
# Submitted via: AltoMP3_Maker 3.0
#
DISCID=ea0d4e10
DTITLE=Abhijeet Sawant - Hey Ganapati
DYEAR=1900
DGENRE=
TTITLE0=Spiritual Songs
TTITLE1=Spiritual Songs
TTITLE2=Ganesh Prarthana
TTITLE3=Aartis
TTITLE4=Aartis
TTITLE5=Aartis
TTITLE6=Aartis
TTITLE7=Mantra Pushpanjali
TTITLE8=Ganesh Stuti
TTITLE9=Ganesh Stuti
TTITLE10=Ashtavinayak Stuti
TTITLE11=Procession Songs
TTITLE12=Procession Songs
TTITLE13=Procession Songs
TTITLE14=Procession Songs
TTITLE15=Procession Songs
EXTD=
EXTT0=
EXTT1=
EXTT2=
EXTT3=
EXTT4=
EXTT5=
EXTT6=
EXTT7=
EXTT8=
EXTT9=
EXTT10=
EXTT11=
EXTT12=
EXTT13=
EXTT14=
EXTT15=
PLAYORDER=
